# xmcd CD database file
#
# Track frame offsets:
#	150
#	30317
#	49440
#	86636
#	106638
#	130082
#	156166
#	186186
#	221164
#
# Disc length: 3293 seconds
#
# Revision: 0
# Processed by: cddbd v1.5.2PL0 Copyright (c) Steve Scherf et al.
# Submitted via: CDex 1.70beta2
#
DISCID=740cdb09
DTITLE=Emma Larsson - Let It Go
DYEAR=2010
DGENRE=Jazz
TTITLE0=Busy Being Blue
TTITLE1=Jealous Fever
TTITLE2=Let It Go
TTITLE3=Overtime
TTITLE4=In Two Minds
TTITLE5=As The Sun Interrupted The Moon
TTITLE6=Afro Blue
TTITLE7=Like A Sweet Refrain
TTITLE8=Irie Butterflies (Live)
EXTD=YEAR: 2010
EXTT0=
EXTT1=
EXTT2=
EXTT3=
EXTT4=
EXTT5=
EXTT6=
EXTT7=
EXTT8=
PLAYORDER=
